# xmcd
#
# Track frame offsets: 
#        150
#        18450
#        35844
#        49782
#        68743
#        86063
#        105689
#        121881
#        145439
#        162759
#        184992
#        197117
#        215239
#        232764
#        250160
#        266829
#        284039
#        301939
#        319479
#        338108
#
# Disc length: 4791 seconds
#
# Revision: 0
# Processed by: cddbd v1.5.2PL0 Copyright (c) Steve Scherf et al.
# Submitted via: ExactAudioCopy v0.99pb5
#
DISCID=3812b514
DTITLE=Various Artist - 20 Essential Love Songs 2
DYEAR=2007
DGENRE=Pop - Rock
TTITLE0=01 - Lionel Richie - Say You, Say Me
TTITLE1=02 - Maria McKee - Show Me Heaven
TTITLE2=03 - Michael Ball - Love Changes Everything
TTITLE3=04 - Michael Jackson - One Day In Your Life
TTITLE4=05 - Nelly Furtado - Try
TTITLE5=06 - Ronan Keating - When You Say Nothing At All
TTITLE6=07 - Samantha Mumba - Always Come Back To Your Life
TTITLE7=08 - Scorpions - Wind Of Change
TTITLE8=09 - Shanice - I Love Your Smile
TTITLE9=10 - Sheryl Crow - Run Baby Run
TTITLE10=11 - Soft Cell - Tainted Love
TTITLE11=12 - Sugababes - Too Lost In You
TTITLE12=13 - Suzanne Vega - Luka
TTITLE13=14 - Tears For Fears - Sowing The Seeds Of Love
TTITLE14=15 - The Righteous Brothers - Unchained Melody
TTITLE15=16 - Tom Jones - Without Love
TTITLE16=17 - Vanessa Carlton - A Thousand Miles
TTITLE17=18 - Wet Wet Wet - Love Is All Around
TTITLE18=19 - Beautiful South - Song For Whoever
TTITLE19=20 - Dina Carrol - Don't Be A Stranger
EXTD=
EXTT0=
EXTT1=
EXTT2=
EXTT3=
EXTT4=
EXTT5=
EXTT6=
EXTT7=
EXTT8=
EXTT9=
EXTT10=
EXTT11=
EXTT12=
EXTT13=
EXTT14=
EXTT15=
EXTT16=
EXTT17=
EXTT18=
EXTT19=
PLAYORDER=
